<svg width="52" height="45" viewBox="0 0 52 45" fill="none" xmlns="http://www.w3.org/2000/svg">
<path d="M19.5 41.25C20.6967 41.25 21.6667 40.4105 21.6667 39.375C21.6667 38.3395 20.6967 37.5 19.5 37.5C18.3034 37.5 17.3334 38.3395 17.3334 39.375C17.3334 40.4105 18.3034 41.25 19.5 41.25Z" stroke="#ECE7E7" stroke-width="1.66667" stroke-linecap="round" stroke-linejoin="round"/>
<path d="M43.3333 41.25C44.5299 41.25 45.5 40.4105 45.5 39.375C45.5 38.3395 44.5299 37.5 43.3333 37.5C42.1367 37.5 41.1666 38.3395 41.1666 39.375C41.1666 40.4105 42.1367 41.25 43.3333 41.25Z" stroke="#ECE7E7" stroke-width="1.66667" stroke-linecap="round" stroke-linejoin="round"/>
<path d="M2.16663 1.875H10.8333L16.64 26.9813C16.8381 27.8445 17.3808 28.6199 18.173 29.1718C18.9652 29.7237 19.9565 30.0169 20.9733 30H42.0333C43.0501 30.0169 44.0414 29.7237 44.8336 29.1718C45.6258 28.6199 46.1685 27.8445 46.3666 26.9813L49.8333 11.25H13" stroke="#ECE7E7" stroke-width="1.66667" stroke-linecap="round" stroke-linejoin="round"/>
<path d="M17 0L22.216 8.0877L33.168 9.67376L25.4397 16.2583L26.9923 25.3262L17 21.308L7.00765 25.3262L8.56032 16.2583L0.832039 9.67376L11.784 8.0877L17 0Z" fill="#FF0000"/>
</svg>
